<?xml version="1.0" encoding="UTF-8"?>
<svg xmlns="http://www.w3.org/2000/svg" width="271" height="79" viewBox="0 0 271 79" fill="none">
  <g clip-path="url(#clip0_1404_1348)">
    <path fill-rule="evenodd" clip-rule="evenodd" d="M45.6208 43.5684C45.6208 43.5684 38.0309 29.3952 46.5564 20.4547C53.0399 13.653 54.9164 10.7682 54.1734 9.13867C56.782 10.4627 60.5648 14.0438 56.5597 22.4888C50.9926 33.8131 43.7661 38.4265 45.6181 43.5684" fill="#73C61A"></path>
    <path d="M69.7626 35.8611C72.6262 34.3031 74.6219 32.7424 75.9262 33.6232C72.0838 29.3512 69.2257 27.84 66.8639 27.8345C61.888 27.8207 59.0109 34.5151 53.2216 36.0648C60.4861 40.0946 65.9012 37.9806 69.7626 35.8611Z" fill="#73C61A"></path>
    <path d="M67.6124 48.9471C55.5482 40.2791 53.7178 42.7978 48.2078 38.2422C47.0282 40.2433 46.8574 41.4903 46.9089 43.0703C47.0119 46.3349 48.0315 48.1131 48.7501 49.4673C50.5371 52.8338 53.8968 55.3442 58.0158 56.8168C71.9293 61.744 72.9841 62.5615 73.1035 64.7554C75.1019 61.8156 77.095 55.7653 67.6151 48.9526L67.6124 48.9471Z" fill="#73C61A"></path>
    <path d="M24.2232 31.52C24.1716 23.1658 19.7001 19.4333 15.9797 17.0716C13.2328 15.3126 10.9089 14.3189 11.0364 12.7417C9.20874 18.2056 9.2928 21.4537 10.4398 23.5347C12.8532 27.9169 20.0581 27.1847 24.2232 31.5173" fill="#F7BC00"></path>
    <path fill-rule="evenodd" clip-rule="evenodd" d="M34.4353 34.5449C34.4353 34.5449 25.8583 48.1318 13.9515 44.9966C4.89454 42.6101 1.48057 42.3678 0.428444 43.8157C0.303708 40.8759 1.56192 35.8029 10.8331 35.2055C23.3582 34.578 30.883 38.6821 34.4353 34.5477" fill="#F7BC00"></path>
    <path d="M15.9797 17.0716C13.2328 15.3126 10.9089 14.3189 11.0364 12.7417C9.20874 18.2056 9.2928 21.4537 10.4398 23.5374C12.8532 27.9196 20.0581 27.1874 24.2232 31.52C24.1716 23.1658 19.7001 19.4333 15.9797 17.0716Z" fill="#F7BC00"></path>
    <path d="M28.3693 12.5792C26.7423 27.4185 29.8173 27.7984 28.5564 34.8699C30.864 34.9304 32.03 34.4707 33.3723 33.6587C36.1517 31.9769 37.193 30.2097 38.0173 28.9187C40.0646 25.7064 40.6016 21.5252 39.864 17.1843C37.3449 2.54317 37.5401 1.21641 39.3813 0.0437977C35.8616 -0.281011 29.6438 0.919129 28.3666 12.5792H28.3693Z" fill="#F7BC00"></path>
    <path d="M34.6034 57.9893C27.4989 62.2971 26.5959 68.0776 26.4793 72.5065C26.379 75.7849 26.7179 78.3063 25.3079 79C30.902 77.7943 33.6326 76.0629 34.8258 74.0067C37.334 69.6796 33.0307 63.811 34.6034 57.9893" fill="#0FA1EA"></path>
    <path fill-rule="evenodd" clip-rule="evenodd" d="M31.9731 47.5977C31.9731 47.5977 47.9502 48.0931 51.3506 60.0092C53.9375 69.0735 55.4723 72.1537 57.2458 72.3271C54.8026 73.9374 49.8294 75.4348 44.585 67.711C37.6568 57.1795 37.3178 48.5666 31.9731 47.5977" fill="#0FA1EA"></path>
    <path d="M26.4793 72.5065C26.379 75.7849 26.7179 78.3063 25.3079 79C30.902 77.7943 33.6353 76.0629 34.8258 74.0067C37.334 69.6796 33.0307 63.811 34.6034 57.9893C27.4989 62.2971 26.5959 68.0776 26.4793 72.5065Z" fill="#0FA1EA"></path>
    <path d="M16.3214 64.0668C29.8173 57.9009 28.57 55.0437 35.2488 52.5251C34.1235 50.4936 33.1364 49.7202 31.7562 48.9715C28.9008 47.4217 26.8616 47.4217 25.3404 47.3667C21.5522 47.2346 17.7125 48.9026 14.3826 51.7543C3.17264 61.4105 1.94154 61.9197 0 60.9205C1.52124 64.1356 5.71617 68.9086 16.3214 64.064V64.0668Z" fill="#0FA1EA"></path>
    <path d="M83.8986 39.569V39.5002C83.8986 32.5719 89.01 26.896 96.2827 26.896C99.9868 26.896 102.422 28.0108 104.515 29.6459C104.96 29.9927 105.34 30.5845 105.34 31.3525C105.34 32.5361 104.412 33.4417 103.246 33.4417C102.663 33.4417 102.251 33.2325 101.977 33.0233C100.331 31.6663 98.5469 30.8295 96.2501 30.8295C91.6891 30.8295 88.3267 34.6611 88.3267 39.4314V39.5002C88.3267 44.2705 91.6539 48.1352 96.2501 48.1352C98.7883 48.1352 100.505 47.2984 102.254 45.8037C102.563 45.5257 103.008 45.3165 103.523 45.3165C104.586 45.3165 105.513 46.2221 105.513 47.3011C105.513 47.9617 105.204 48.4847 104.827 48.8343C102.563 50.8547 99.9895 52.1072 96.1146 52.1072C89.1158 52.1072 83.904 46.5717 83.904 39.5718L83.8986 39.569Z" fill="#214478"></path>
    <path d="M108.903 48.9002L117.821 28.7043C118.301 27.6253 119.158 26.9619 120.36 26.9619H120.566C121.767 26.9619 122.589 27.6225 123.068 28.7043L131.987 48.9002C132.158 49.214 132.228 49.5278 132.228 49.8059C132.228 50.9537 131.372 51.8593 130.238 51.8593C129.243 51.8593 128.557 51.2675 128.18 50.3619L126.225 45.8008H114.562L112.539 50.5023C112.197 51.3721 111.476 51.8593 110.584 51.8593C109.486 51.8593 108.629 50.9895 108.629 49.8747C108.629 49.5609 108.732 49.2471 108.903 48.9002V48.9002ZM124.614 42.0049L120.395 32.1506L116.175 42.0049H124.614Z" fill="#214478"></path>
    <path d="M136.787 29.4725C136.787 28.2531 137.711 27.3145 138.913 27.3145H147.487C150.505 27.3145 152.872 28.2201 154.415 29.7533C155.684 31.0773 156.405 32.8857 156.405 35.0108V35.0796C156.405 38.98 154.176 41.3473 150.952 42.3575L155.549 48.2426C155.961 48.7656 156.235 49.217 156.235 49.8804C156.235 51.064 155.239 51.865 154.212 51.865C153.252 51.865 152.634 51.4136 152.154 50.7502L146.321 43.1943H141.003V49.74C141.003 50.9236 140.079 51.865 138.91 51.865C137.741 51.865 136.784 50.9264 136.784 49.74V29.4725H136.787ZM147.18 39.3957C150.198 39.3957 152.118 37.7937 152.118 35.3218V35.253C152.118 32.6408 150.266 31.2149 147.145 31.2149H141.006V39.3984H147.18V39.3957Z" fill="#214478"></path>
    <path d="M161.826 29.2632C161.826 28.0796 162.754 27.1382 163.952 27.1382C165.151 27.1382 166.046 28.0768 166.046 29.2632V49.7371C166.046 50.9208 165.118 51.8622 163.952 51.8622C162.786 51.8622 161.826 50.9235 161.826 49.7371V29.2632Z" fill="#214478"></path>
    <path d="M172.459 29.332C172.459 28.1484 173.386 27.174 174.584 27.174H175.029C176.057 27.174 176.643 27.697 177.226 28.4264L189.23 44.1989V29.2274C189.23 28.0768 190.157 27.1382 191.288 27.1382C192.419 27.1382 193.382 28.0768 193.382 29.2274V49.7014C193.382 50.885 192.49 51.8264 191.324 51.8264H191.153C190.157 51.8264 189.539 51.3034 188.956 50.5382L176.607 34.3115V49.7702C176.607 50.9208 175.68 51.8594 174.549 51.8594C173.418 51.8594 172.456 50.9208 172.456 49.7702V29.332H172.459Z" fill="#214478"></path>
    <path d="M198.49 39.569V39.5002C198.49 32.6765 203.634 26.896 210.874 26.896C214.475 26.896 216.878 27.7658 219.072 29.3678C219.484 29.6816 219.929 30.2735 219.929 31.1075C219.929 32.2581 219.001 33.2325 217.835 33.2325C217.287 33.2325 216.875 32.9875 216.531 32.7453C214.988 31.5975 213.307 30.8295 210.701 30.8295C206.275 30.8295 202.913 34.763 202.913 39.4314V39.5002C202.913 44.5127 206.172 48.204 211.078 48.204C213.342 48.204 215.4 47.4718 216.875 46.3597V41.7986H212.141C211.113 41.7986 210.253 40.9976 210.253 39.9544C210.253 38.9112 211.11 38.0744 212.141 38.0744H218.83C220.032 38.0744 220.956 39.0158 220.956 40.2324V46.7423C220.956 47.9617 220.476 48.8316 219.481 49.4592C217.423 50.852 214.541 52.1044 210.939 52.1044C203.428 52.1044 198.488 46.6735 198.488 39.569H198.49Z" fill="#214478"></path>
    <path d="M226.068 41.3446V29.2606C226.068 28.077 226.995 27.1356 228.194 27.1356C229.392 27.1356 230.287 28.0742 230.287 29.2606V41.1684C230.287 45.6937 232.584 48.0967 236.359 48.0967C240.133 48.0967 242.395 45.8341 242.395 41.3418V29.2578C242.395 28.0742 243.322 27.1328 244.521 27.1328C245.719 27.1328 246.614 28.0715 246.614 29.2578V41.1326C246.614 48.4105 242.566 52.066 236.288 52.066C230.011 52.066 226.065 48.4105 226.065 41.3418L226.068 41.3446Z" fill="#0FA1EA"></path>
    <path d="M252.409 29.4725C252.409 28.2531 253.336 27.3145 254.535 27.3145H261.875C267.499 27.3145 271 30.5515 271 35.4622V35.531C271 40.9977 266.678 43.8522 261.395 43.8522H256.628V49.7372C256.628 50.9209 255.701 51.8623 254.535 51.8623C253.369 51.8623 252.409 50.9236 252.409 49.7372V29.4725ZM261.534 39.9875C264.723 39.9875 266.713 38.1763 266.713 35.6356V35.5668C266.713 32.7123 264.69 31.2149 261.534 31.2149H256.628V39.9902H261.534V39.9875Z" fill="#0FA1EA"></path>
  </g>
  <defs>
    <clipPath id="clip0_1404_1348">
      <rect width="271" height="79" fill="white"></rect>
    </clipPath>
  </defs>
</svg>
